<svg width="173" height="36" viewBox="0 0 173 36" fill="none" xmlns="http://www.w3.org/2000/svg">
<path d="M42.9004 1.13532L37.532 6.48266C37.3738 6.64025 37.2852 6.85456 37.2852 7.07728V34.77C37.2852 35.0011 37.475 35.1903 37.707 35.1903H41.4829C41.7149 35.1903 41.9048 35.0011 41.9048 34.77V26.9623C41.9048 25.2225 43.3223 23.8106 45.0689 23.8106H61.8597C63.6063 23.8106 65.0239 25.2225 65.0239 26.9623V34.77C65.0239 35.0011 65.2137 35.1903 65.4457 35.1903H69.2216C69.4536 35.1903 69.6435 35.0011 69.6435 34.77V6.49317C69.6435 6.27045 69.5549 6.05614 69.3967 5.89855L64.6104 1.13532C64.4522 0.977733 64.237 0.889486 64.0134 0.889486H43.4952C43.2738 0.887385 43.0586 0.977733 42.9004 1.13532ZM65.0217 8.64051V17.5282C65.0217 18.4548 64.2645 19.2091 63.3342 19.2091H43.5902C42.6599 19.2091 41.9026 18.4548 41.9026 17.5282V8.64051C41.9026 6.90289 43.3223 5.48883 45.0668 5.48883H61.8576C63.6042 5.48883 65.0217 6.90289 65.0217 8.64051Z" fill="black" fill-opacity="0.4"/>
<path d="M75.8141 1.30967V27.9519C75.8141 28.1746 75.9027 28.3889 76.0609 28.5465L82.484 34.9444C82.6422 35.102 82.8574 35.1902 83.081 35.1902H97.7836C98.0156 35.1902 98.2054 35.0011 98.2054 34.77V31.009C98.2054 30.7779 98.0156 30.5888 97.7836 30.5888H83.5957C81.8491 30.5888 80.4316 29.1768 80.4316 27.4371V1.30967C80.4316 1.07855 80.2417 0.88945 80.0097 0.88945H76.2339C76.0039 0.88945 75.8141 1.07855 75.8141 1.30967Z" fill="black" fill-opacity="0.4"/>
<path d="M123.686 34.7721V31.0111C123.686 30.78 123.496 30.5909 123.264 30.5909H109.076C107.329 30.5909 105.912 29.1789 105.912 27.4392V1.30967C105.912 1.07855 105.722 0.88945 105.49 0.88945H101.714C101.482 0.88945 101.292 1.07855 101.292 1.30967V27.9519C101.292 28.1746 101.381 28.3889 101.539 28.5465L107.962 34.9444C108.121 35.102 108.336 35.1902 108.559 35.1902H123.262C123.496 35.1923 123.686 35.0032 123.686 34.7721Z" fill="black" fill-opacity="0.4"/>
<path d="M134.473 34.6903V1.2279C134.473 0.996779 134.283 0.807678 134.051 0.807678H130.275C130.043 0.807678 129.853 0.996779 129.853 1.2279V34.6882C129.853 34.9193 130.043 35.1084 130.275 35.1084H134.051C134.285 35.1105 134.473 34.9214 134.473 34.6903Z" fill="black" fill-opacity="0.4"/>
<path d="M172.752 29.3848C172.903 29.2272 172.99 29.0171 172.99 28.7986V21.4426C172.99 21.3964 172.992 21.3501 172.998 21.3039V16.631C172.998 16.1667 172.621 15.7906 172.155 15.7906H146.325C145.743 15.7906 145.27 15.3199 145.27 14.74V8.64048C145.27 6.90075 146.688 5.4888 148.434 5.4888H165.217C166.963 5.4888 168.381 6.90075 168.381 8.64048V10.9118C168.381 11.1429 168.571 11.332 168.803 11.332H172.579C172.811 11.332 173 11.1429 173 10.9118V1.30967C173 1.07855 172.811 0.88945 172.579 0.88945H146.951C146.673 0.88945 146.403 1.00081 146.205 1.19621L140.959 6.4217C140.76 6.6213 140.651 6.88394 140.651 7.16549V19.9739C140.651 20.205 140.84 20.3941 141.072 20.3941H167.318C167.9 20.3941 168.372 20.8648 168.372 21.4447V27.4392C168.372 29.1789 166.955 30.5909 165.208 30.5909H148.426C146.679 30.5909 145.262 29.1789 145.262 27.4392V25.1679C145.262 24.9368 145.072 24.7477 144.84 24.7477H141.064C140.832 24.7477 140.642 24.9368 140.642 25.1679V34.77C140.642 35.0011 140.832 35.1902 141.064 35.1902H166.769C166.997 35.1902 167.216 35.0978 167.375 34.936L172.752 29.3848Z" fill="black" fill-opacity="0.4"/>
<path d="M13.6225 17.0933L31.0547 1.62484C31.3458 1.36851 31.1644 0.88945 30.7762 0.88945H25.5576C25.4563 0.88945 25.3593 0.925169 25.2833 0.990304L5.05203 18.1375C4.87906 18.2825 4.61538 18.1627 4.61538 17.9379C4.61538 14.4291 4.62171 1.30967 4.62171 1.30967C4.62171 1.07855 4.43186 0.88945 4.19983 0.88945H0.421881C0.189847 0.88945 0 1.07855 0 1.30967V34.7721C0 35.0032 0.189847 35.1923 0.421881 35.1923H4.19772C4.42975 35.1923 4.6196 35.0032 4.6196 34.7721V26.0419C4.6196 25.1322 5.01406 24.2665 5.70173 23.6677L9.74124 20.2828C10.5217 19.602 11.684 19.665 12.3864 20.4257L27.9201 35.0557C28.0003 35.1419 28.1121 35.1923 28.2302 35.1923H33.8475C34.2146 35.1923 34.4065 34.7574 34.1576 34.4884L16.485 17.3118C16.3374 17.1668 16.1391 17.0828 15.9323 17.0723L13.6225 17.0933Z" fill="black" fill-opacity="0.4"/>
</svg>
