<svg width="169" height="56" viewBox="0 0 169 56" fill="none" xmlns="http://www.w3.org/2000/svg">
<g opacity="0.4">
<path fill-rule="evenodd" clip-rule="evenodd" d="M18.4999 9.63905L6.63936 13.2628L6.63797 13.26C6.53716 13.2911 6.4312 13.3019 6.32618 13.2919C6.22117 13.282 6.11915 13.2513 6.026 13.2018C5.93284 13.1523 5.85038 13.0849 5.78335 13.0035C5.71632 12.922 5.66604 12.8281 5.63539 12.7272C5.60474 12.6262 5.59433 12.5202 5.60475 12.4152C5.61518 12.3103 5.64623 12.2084 5.69613 12.1154C5.74604 12.0225 5.8138 11.9403 5.89554 11.8736C5.97729 11.807 6.07139 11.7571 6.17247 11.7269L18.2671 8.03486C18.4188 7.98838 18.581 7.98838 18.7326 8.03486L31.0907 11.8077C31.2932 11.8701 31.4627 12.0102 31.5621 12.1973C31.6615 12.3844 31.6828 12.6033 31.6212 12.806C31.5597 13.0088 31.4203 13.1788 31.2337 13.2791C31.047 13.3793 30.8282 13.4015 30.6252 13.3408L18.4999 9.63905ZM29.5849 28.1397L35.0759 16.7244C35.1385 17.4729 35.1659 18.2242 35.1579 18.9758C35.1565 21.6172 34.8379 24.2488 34.2088 26.8142C33.3581 30.2995 31.8763 33.5995 29.8369 36.5509C27.7039 39.6187 24.7101 42.6409 20.4785 45.1731L29.5696 28.1703L29.5849 28.1397ZM18.231 47.9406C18.1783 47.922 18.1275 47.8978 18.0795 47.8683L17.1391 47.3622C11.9463 44.5678 8.33806 41.0472 5.85035 37.4666C3.69826 34.355 2.1343 30.8755 1.2359 27.2003C0.575914 24.509 0.241823 21.7482 0.24082 18.9772C0.227736 17.6946 0.312063 16.4128 0.493075 15.143L0.69227 13.9385C0.696349 13.8741 0.708235 13.8103 0.727771 13.7485C0.759587 13.6478 0.811063 13.5545 0.879216 13.4739C0.94737 13.3932 1.03085 13.3269 1.12481 13.2788C1.21877 13.2307 1.32135 13.2017 1.4266 13.1935C1.53186 13.1853 1.63769 13.198 1.73797 13.231C1.83826 13.264 1.931 13.3166 2.01082 13.3857C2.07628 13.4423 2.13197 13.5092 2.17583 13.5835C2.18998 13.607 2.2029 13.6312 2.21453 13.656L9.33579 27.548H27.8309C27.9146 27.548 27.9968 27.5612 28.075 27.5863L28.1577 27.4316L34.7837 13.6447C34.8774 13.4561 35.0417 13.312 35.241 13.2439C35.2727 13.2331 35.3048 13.2243 35.3373 13.2176C35.3521 13.2143 35.367 13.2114 35.382 13.2089C35.4859 13.1917 35.5922 13.1952 35.6947 13.2193C35.7972 13.2434 35.894 13.2875 35.9794 13.3491C36.0648 13.4107 36.1372 13.4887 36.1923 13.5784C36.2474 13.6681 36.2843 13.7679 36.3007 13.8719L36.5112 15.1444C36.6921 16.4142 36.7765 17.696 36.7634 18.9786C36.7624 21.7496 36.4283 24.5104 35.7683 27.2017C34.8707 30.8762 33.3077 34.3552 31.1567 37.4666C28.6648 41.0472 25.0552 44.5664 19.8679 47.3622L18.8826 47.8932C18.7664 47.9561 18.6363 47.989 18.5042 47.989C18.4107 47.989 18.3183 47.9725 18.231 47.9406ZM27.2428 29.1438H10.1538L18.5212 45.4667L27.2428 29.1438ZM1.93051 16.604L16.5902 45.2165C12.3203 42.6755 9.30545 39.6363 7.15901 36.5509C5.11958 33.5995 3.63783 30.2995 2.78706 26.8142C2.15813 24.2493 1.83948 21.6181 1.83797 18.9772C1.82946 18.1849 1.86037 17.3928 1.93051 16.604ZM49.3626 22.2588H61.6636V20.6003H49.3626C49.038 20.5988 48.7164 20.6616 48.4162 20.7852C48.1161 20.9087 47.8434 21.0904 47.6139 21.3199C47.3844 21.5494 47.2027 21.8221 47.0791 22.1223C46.9556 22.4224 46.8928 22.744 46.8943 23.0686V32.9418C46.8928 33.2663 46.9556 33.5879 47.0791 33.8881C47.2027 34.1882 47.3844 34.4609 47.6139 34.6904C47.8434 34.9199 48.1161 35.1016 48.4162 35.2252C48.7164 35.3487 49.038 35.4115 49.3626 35.41H61.6636V33.7376H49.3626C49.1501 33.7361 48.9467 33.6511 48.7965 33.5008C48.6463 33.3506 48.5612 33.1472 48.5598 32.9348V23.0616C48.5609 22.849 48.6458 22.6455 48.7961 22.4952C48.9464 22.3449 49.15 22.2599 49.3626 22.2588ZM84.7619 22.2644V20.5919H71.2413V35.4073H84.7605V33.7348H72.9138V28.8386H82.4371V27.1522H72.9152V22.2644H84.7619ZM109.156 23.0811V27.4212C109.158 27.7457 109.095 28.0672 108.971 28.3673C108.847 28.6673 108.666 28.94 108.436 29.1694C108.207 29.3989 107.934 29.5806 107.634 29.7042C107.334 29.8278 107.012 29.8908 106.688 29.8895H104.426L109.074 35.4017H106.873L102.245 29.8895H96.8095C96.5407 29.8758 96.2727 29.8484 96.0067 29.8073V35.4017H94.3342V20.6128H106.675C107 20.6115 107.321 20.6745 107.621 20.7981C107.922 20.9217 108.194 21.1034 108.424 21.3329C108.653 21.5624 108.835 21.835 108.958 22.135C109.082 22.4351 109.145 22.7566 109.144 23.0811H109.156ZM96.8151 28.2031H106.688C106.791 28.2044 106.893 28.1851 106.989 28.1462C107.084 28.1074 107.171 28.0499 107.244 27.977C107.317 27.9041 107.374 27.8174 107.413 27.722C107.452 27.6265 107.471 27.5242 107.47 27.4212V23.0811C107.471 22.9766 107.452 22.8727 107.414 22.7756C107.375 22.6785 107.317 22.59 107.244 22.5153C107.173 22.4388 107.087 22.3781 106.991 22.3373C106.895 22.2964 106.791 22.2764 106.687 22.2783H96.8137C96.6011 22.2794 96.3976 22.3644 96.2472 22.5147C96.0969 22.665 96.012 22.8686 96.0109 23.0811V27.4212C96.0087 27.5256 96.0287 27.6292 96.0696 27.7253C96.1104 27.8214 96.1712 27.9078 96.2478 27.9787C96.3227 28.0519 96.4114 28.1095 96.5088 28.148C96.6062 28.1866 96.7103 28.2053 96.8151 28.2031ZM132.807 20.5919H118.003V22.2644H124.584V35.4086H126.257V22.2644H132.807V20.5919ZM141.78 20.5919V35.4017H143.453V20.5919H141.78ZM167.821 20.5919H165.681L160.172 27.1522H155.4V20.5919H153.713V35.4017H155.397V28.84H160.169L165.681 35.4017H167.841L161.63 27.9968L167.821 20.5919Z" fill="black"/>
</g>
</svg>
