<svg width="174" height="56" viewBox="0 0 174 56" fill="none" xmlns="http://www.w3.org/2000/svg">
<g opacity="0.4">
<path fill-rule="evenodd" clip-rule="evenodd" d="M24.6086 30.2064H21.2046H21.2036C18.6593 30.2073 16.2181 29.201 14.4136 27.4074C13.5225 26.5215 12.8153 25.4682 12.3325 24.3081C11.8498 23.148 11.601 21.904 11.6006 20.6474C11.601 19.3909 11.8498 18.1468 12.3325 16.9867C12.8153 15.8266 13.5225 14.7733 14.4136 13.8874C16.2184 12.0936 18.66 11.0873 21.2046 11.0884H36.6986L33.3726 7.77843C33.1753 7.58624 33.0261 7.35029 32.937 7.08969C32.8478 6.8291 32.8213 6.55118 32.8596 6.27843C33.0176 5.23043 34.1766 4.11043 35.2346 4.02043C35.5693 3.97439 35.91 4.00641 36.2303 4.11396C36.5505 4.22152 36.8416 4.40171 37.0806 4.64043L44.7556 12.2784C44.9148 12.4356 45.0412 12.6229 45.1274 12.8293C45.2137 13.0357 45.2581 13.2572 45.2581 13.4809C45.2581 13.7047 45.2137 13.9261 45.1274 14.1326C45.0412 14.339 44.9148 14.5262 44.7556 14.6834L37.0826 22.3214C36.8414 22.5497 36.5489 22.7165 36.2297 22.8079C35.9105 22.8993 35.574 22.9125 35.2486 22.8464C34.1746 22.6024 33.2066 21.6684 32.9416 20.8454C32.849 20.5565 32.84 20.2474 32.9158 19.9536C32.9915 19.6598 33.1488 19.3935 33.3696 19.1854L36.7006 15.8694H22.2826C19.4966 15.8694 17.4806 18.2434 17.4806 20.6634C17.4867 21.9288 17.9945 23.14 18.8926 24.0314C19.794 24.9251 21.0113 25.4274 22.2806 25.4294H28.3186C28.4539 25.4294 28.5862 25.4694 28.6989 25.5445C28.8115 25.6196 28.8993 25.7263 28.9513 25.8513C29.0033 25.9762 29.0171 26.1138 28.991 26.2466C28.9649 26.3794 28.9 26.5015 28.8046 26.5974L25.5806 29.8064C25.3222 30.0629 24.9727 30.2068 24.6086 30.2064ZM34.4986 25.4295H37.2486V25.4285C39.7921 25.43 42.2318 26.4372 44.0356 28.2305C44.9261 29.1159 45.6331 30.1683 46.1162 31.3275C46.5992 32.4866 46.8488 33.7297 46.8506 34.9855C46.8651 36.2459 46.6269 37.4964 46.1499 38.6632C45.6729 39.8299 44.9669 40.8892 44.0736 41.7785C43.1781 42.6697 42.1136 43.3731 40.9426 43.8475C39.7696 44.322 38.5138 44.5579 37.2486 44.5415H19.5566L22.8866 47.8605C23.1075 48.0678 23.265 48.3336 23.3407 48.6269C23.4165 48.9203 23.4074 49.2291 23.3146 49.5175C23.0496 50.3405 22.0826 51.2775 21.0076 51.5195C20.6823 51.5861 20.3458 51.5732 20.0267 51.4818C19.7075 51.3904 19.4152 51.2232 19.1746 50.9945L11.5006 43.3555C11.3416 43.1985 11.2156 43.0115 11.1296 42.8055C11.0005 42.4948 10.9669 42.1528 11.033 41.823C11.0991 41.4931 11.2618 41.1904 11.5006 40.9535L19.1746 33.3145C19.4146 33.0774 19.7055 32.8983 20.0253 32.7908C20.345 32.6834 20.6851 32.6504 21.0196 32.6945C22.0776 32.7765 23.2366 33.9095 23.3946 34.9545C23.4324 35.2269 23.4057 35.5044 23.3166 35.7646C23.2275 36.0248 23.0785 36.2604 22.8816 36.4525L19.5556 39.7665H36.5536C38.4526 39.7665 41.3556 38.3135 41.3556 34.9865C41.3556 31.6585 38.7056 30.2065 36.3686 30.2065H30.7886C30.6526 30.2077 30.5194 30.1683 30.4059 30.0933C30.2925 30.0184 30.204 29.9112 30.1518 29.7857C30.0996 29.6601 30.086 29.5218 30.1129 29.3885C30.1398 29.2552 30.2058 29.133 30.3026 29.0375L33.5266 25.8305C33.785 25.5738 34.1343 25.4296 34.4986 25.4295ZM55.3336 31.1935H52.6906C52.5302 31.195 52.3723 31.2328 52.2287 31.3042C52.0851 31.3755 51.9596 31.4786 51.8616 31.6055C51.7632 31.7316 51.695 31.8785 51.6621 32.035C51.6291 32.1915 51.6324 32.3534 51.6716 32.5085C52.4906 35.8215 55.4916 37.9315 60.4366 37.9315C65.2186 37.9315 68.5086 35.6245 68.5086 31.7945C68.5086 27.3315 64.9596 26.4385 61.7446 25.7685C61.3028 25.6779 60.8658 25.5982 60.4438 25.5212C58.2596 25.1225 56.4736 24.7965 56.4736 23.4255C56.4736 22.0485 57.7816 21.3035 59.7636 21.3035C61.6356 21.3035 62.8656 21.8595 63.3106 23.3265C63.3762 23.5463 63.5106 23.7393 63.694 23.8772C63.8774 24.0151 64.1001 24.0905 64.3296 24.0925H66.7826C66.9456 24.0925 67.1066 24.0545 67.2536 23.9825C67.474 23.874 67.6496 23.6919 67.75 23.4676C67.8504 23.2434 67.8694 22.9912 67.8036 22.7545C66.9576 19.6905 64.2566 17.7705 59.8266 17.7705C55.4546 17.7705 52.0146 19.7425 52.0146 23.8705C52.0146 28.0375 55.3846 28.9675 58.8226 29.6375C59.1525 29.7032 59.4795 29.7636 59.7991 29.8227C62.0115 30.2315 63.8676 30.5744 63.8676 32.1665C63.8676 33.5055 62.5956 34.3615 60.3546 34.3615C58.3406 34.3615 56.8826 33.6145 56.3376 31.9195C56.2674 31.7085 56.1327 31.525 55.9525 31.3947C55.7724 31.2644 55.5559 31.194 55.3336 31.1935ZM73.1336 18.2855H70.3216C70.1546 18.2845 69.9916 18.3235 69.8446 18.3975C69.6207 18.5077 69.4434 18.694 69.3445 18.9231C69.2455 19.1521 69.2314 19.4089 69.3046 19.6475L74.2916 36.6225C74.3569 36.8414 74.4909 37.0336 74.6739 37.1705C74.8569 37.3074 75.0791 37.3817 75.3076 37.3825H78.3066C78.5377 37.3833 78.7627 37.3082 78.9469 37.1687C79.1312 37.0292 79.2646 36.8331 79.3266 36.6105L81.7266 28.0065C82.1376 26.4815 82.6236 24.6965 82.6236 24.6965H82.6996C82.6996 24.6965 83.1466 26.4815 83.5596 28.0065L85.8896 36.6025C85.9509 36.8263 86.084 37.0239 86.2684 37.1648C86.4529 37.3057 86.6785 37.3822 86.9106 37.3825H89.9556C90.1836 37.3831 90.4057 37.3102 90.5889 37.1746C90.7721 37.0389 90.9067 36.8477 90.9726 36.6295L96.0566 19.6545C96.1037 19.4972 96.1133 19.3311 96.0846 19.1695C96.0402 18.9253 95.9116 18.7043 95.7213 18.545C95.5309 18.3857 95.2908 18.2981 95.0426 18.2975H92.3386C92.1067 18.2969 91.8811 18.3727 91.6965 18.5131C91.512 18.6536 91.3788 18.8508 91.3176 19.0745L89.0976 27.1395C88.6866 28.7015 88.2396 30.7095 88.2396 30.7095H88.1636C88.1636 30.7095 87.6776 28.7015 87.2666 27.1015L84.9816 19.0545C84.9194 18.8323 84.7861 18.6366 84.602 18.4975C84.4179 18.3584 84.1933 18.2836 83.9626 18.2845H81.2396C81.0068 18.2836 80.7803 18.3596 80.5951 18.5006C80.41 18.6416 80.2766 18.8398 80.2156 19.0645L78.0276 27.1015C77.6166 28.6645 77.2036 30.7105 77.2036 30.7105H77.1296C77.1296 30.7105 76.6806 28.7005 76.2696 27.1405L74.1596 19.0745C74.0993 18.8484 73.966 18.6485 73.7805 18.5058C73.595 18.3632 73.3676 18.2857 73.1336 18.2855ZM109.084 35.2495H109.159H109.16C109.213 35.6976 109.296 36.1417 109.41 36.5785C109.473 36.8013 109.607 36.9976 109.791 37.1378C109.976 37.2779 110.201 37.3543 110.433 37.3555H113.157C113.318 37.3549 113.477 37.3177 113.622 37.2467C113.767 37.1756 113.893 37.0727 113.993 36.9455C114.091 36.8182 114.159 36.6702 114.192 36.5128C114.225 36.3553 114.222 36.1925 114.183 36.0365C114.051 35.5445 113.981 35.0375 113.976 34.5295V24.8195C113.976 20.3665 111.659 17.8015 105.904 17.8015C101.034 17.8015 98.5046 20.0155 97.8266 22.7935C97.7896 22.9485 97.7886 23.11 97.8236 23.2655C97.8776 23.4994 98.0096 23.708 98.1978 23.8571C98.3861 24.0061 98.6195 24.0866 98.8596 24.0855H101.292C101.517 24.0882 101.737 24.0178 101.919 23.8847C102.101 23.7516 102.234 23.5631 102.3 23.3475C102.685 22.0335 103.827 21.4115 105.87 21.4115C108 21.4115 109.084 22.3025 109.084 23.6785C109.084 25.1315 107.628 25.3905 104.45 25.8385C100.19 26.4335 96.7516 27.7715 96.7516 31.9755C96.7516 35.7705 99.5166 37.8155 103.441 37.8155C106.73 37.8155 108.111 36.7025 109.084 35.2495ZM109.196 27.7715V30.6375C109.196 32.4955 107.589 34.2815 104.673 34.2845C102.882 34.2845 101.686 33.6505 101.686 31.8645C101.686 30.0775 102.993 29.4825 105.646 28.8875C105.735 28.8665 105.825 28.8455 105.916 28.8244C107.11 28.5464 108.362 28.2548 109.196 27.7715ZM121.029 18.2855H118.253C117.974 18.2855 117.707 18.3955 117.509 18.5905C117.311 18.7855 117.198 19.0505 117.195 19.3285V42.5605C117.196 42.8404 117.308 43.1084 117.506 43.3061C117.704 43.5039 117.973 43.6154 118.253 43.6165H121.216C121.497 43.6168 121.766 43.5056 121.966 43.3075C122.165 43.1095 122.276 42.8405 122.276 42.5605V35.2085H122.352C123.436 36.8475 125.192 37.9245 127.883 37.9245C132.816 37.9245 136.179 34.0185 136.179 27.8445C136.179 21.8905 132.928 17.7625 127.844 17.7625C125.228 17.7625 123.436 18.9915 122.201 20.6665H122.089V19.3405C122.089 19.0605 121.978 18.7915 121.779 18.5945C121.58 18.3955 121.31 18.2855 121.029 18.2855ZM126.612 21.8575C129.751 21.8575 131.022 24.3865 131.022 27.9945C131.022 31.6025 129.378 33.7225 126.799 33.7225C123.772 33.7225 122.165 31.4545 122.165 27.9945C122.165 24.5725 123.436 21.8575 126.612 21.8575ZM141.38 10.7515H140.772C140.07 10.7512 139.397 11.0287 138.9 11.5235C138.403 12.0175 138.124 12.6875 138.124 13.3865C138.124 13.733 138.192 14.0762 138.325 14.3962C138.458 14.7163 138.653 15.0069 138.899 15.2515C139.397 15.7454 140.07 16.0225 140.772 16.0225H141.38C142.081 16.0226 142.754 15.7451 143.252 15.2505C143.497 15.0063 143.692 14.7159 143.825 14.3961C143.958 14.0762 144.027 13.7332 144.027 13.3868C144.027 13.0403 143.958 12.6973 143.825 12.3775C143.692 12.0578 143.496 11.7675 143.251 11.5235C142.755 11.0295 142.082 10.7515 141.38 10.7515ZM142.557 18.2855H139.593C139.313 18.2865 139.045 18.3979 138.847 18.5954C138.649 18.793 138.536 19.0607 138.535 19.3405V36.3135C138.536 36.5932 138.649 36.8609 138.847 37.0585C139.045 37.256 139.313 37.3674 139.593 37.3685H142.557C142.837 37.3679 143.105 37.2568 143.304 37.0592C143.502 36.8616 143.615 36.5936 143.617 36.3135V19.3405C143.615 19.0604 143.502 18.7923 143.304 18.5947C143.105 18.3971 142.837 18.286 142.557 18.2855ZM151.56 20.8895H151.448L151.46 19.3405C151.458 19.0602 151.346 18.7919 151.147 18.5942C150.949 18.3965 150.68 18.2855 150.4 18.2855H147.531C147.392 18.2849 147.254 18.3118 147.125 18.3646C146.997 18.4174 146.88 18.495 146.782 18.593C146.683 18.691 146.605 18.8075 146.552 18.9357C146.498 19.064 146.471 19.2015 146.471 19.3405V36.3145C146.471 36.4534 146.498 36.591 146.551 36.7194C146.605 36.8477 146.683 36.9642 146.781 37.0622C146.88 37.1603 146.997 37.2379 147.125 37.2906C147.254 37.3433 147.392 37.3701 147.531 37.3695H150.495C150.775 37.3695 151.044 37.2585 151.242 37.0608C151.441 36.8631 151.553 36.5947 151.555 36.3145V26.5445C151.555 23.9405 153.203 22.1545 155.445 22.1545C157.577 22.1545 158.771 23.6045 158.771 25.6515V36.3145C158.772 36.5949 158.884 36.8635 159.082 37.0614C159.281 37.2593 159.55 37.3705 159.831 37.3705H162.795C162.934 37.3711 163.071 37.3443 163.2 37.2915C163.329 37.2387 163.446 37.161 163.544 37.0629C163.643 36.9647 163.721 36.8481 163.774 36.7197C163.827 36.5912 163.855 36.4535 163.855 36.3145V24.9065C163.855 20.7415 161.203 17.7645 157.239 17.7645C154.623 17.7645 152.868 18.8445 151.56 20.8895Z" fill="black"/>
</g>
</svg>
