<svg width="108" height="56" viewBox="0 0 108 56" fill="none" xmlns="http://www.w3.org/2000/svg">
<g opacity="0.4">
<path fill-rule="evenodd" clip-rule="evenodd" d="M63.4181 31.2544C63.0738 31.8517 62.779 32.4297 62.5361 32.988C62.3135 33.5456 62.141 34.0143 62.0193 34.3929C62.7288 34.0341 63.4591 33.6255 64.209 33.167C64.9803 32.7091 65.7009 32.2705 66.37 31.8517C67.0392 31.4334 67.6178 31.0549 68.1047 30.716C68.6118 30.3777 68.9665 30.1481 69.1696 30.0285C70.0822 29.4703 70.711 28.9529 71.056 28.474C71.4004 27.9765 71.5728 27.5474 71.5728 27.1893C71.5728 26.8901 71.4713 26.6509 71.2682 26.4718C71.086 26.2922 70.8731 26.1828 70.629 26.1425C70.5275 26.1227 70.437 26.1131 70.3562 26.1131H70.0822C69.3115 26.1131 68.591 26.2627 67.9218 26.5614C67.2527 26.86 66.6337 27.2584 66.066 27.7565C65.518 28.2349 65.0213 28.7829 64.5748 29.4012C64.1491 30.0189 63.7637 30.636 63.4181 31.2544ZM42.2324 29.4357C41.803 30.0599 41.4149 30.6835 41.0681 31.3083C40.7207 31.9118 40.4243 32.496 40.1792 33.0601C39.99 33.5355 39.8446 33.932 39.7276 34.2787C39.7615 34.3145 39.7917 34.3534 39.8206 34.3929C40.4853 34.0504 41.1654 33.6697 41.8647 33.241C42.6415 32.7783 43.3659 32.3351 44.0405 31.9118C44.7151 31.4892 45.2972 31.1067 45.787 30.7642C46.2983 30.4224 46.6556 30.1904 46.8595 30.0696C47.7793 29.5055 48.4126 28.9827 48.76 28.4988C49.1074 27.996 49.2812 27.5625 49.2812 27.2006C49.2812 26.8982 49.1789 26.6565 48.9744 26.4756C48.7902 26.294 48.5758 26.1835 48.3306 26.1428C48.2284 26.1228 48.1366 26.1131 48.0552 26.1131H47.7793C47.0031 26.1131 46.278 26.2643 45.6034 26.5661C44.9288 26.8678 44.306 27.2704 43.7343 27.7738C43.1824 28.2571 42.6821 28.8109 42.2324 29.4357ZM105.879 9.68264C106.291 10.1317 106.621 10.7039 106.868 11.3988C107.116 12.0727 107.24 12.8691 107.24 13.7888C107.24 14.6672 107.116 15.6374 106.868 16.6993C106.807 16.9851 106.683 17.2303 106.497 17.4348C106.312 17.619 106.106 17.7717 105.879 17.8943C105.652 18.0169 105.425 18.1093 105.198 18.1703C104.972 18.2109 104.776 18.2313 104.611 18.2313C104.198 18.2313 103.816 18.1395 103.466 17.9559C103.116 17.7514 102.941 17.4453 102.941 17.0363C102.941 16.7708 102.951 16.5256 102.971 16.3014C103.012 16.0765 103.034 15.8517 103.034 15.6269C103.034 14.7688 102.868 14.1565 102.539 13.7888C102.229 13.4204 101.807 13.2369 101.27 13.2369C100.631 13.2369 99.8785 13.5128 99.013 14.0641C98.1675 14.6161 97.3015 15.3515 96.4149 16.2706C95.5495 17.1896 94.7145 18.2417 93.91 19.4263C93.1062 20.5911 92.4459 21.7861 91.9311 23.0119H99.1368C99.7753 23.0119 100.374 23.0218 100.93 23.0421C101.487 23.063 101.972 23.124 102.384 23.2263C102.817 23.3279 103.147 23.5022 103.374 23.7474C103.621 23.9716 103.745 24.3085 103.745 24.7582C103.745 24.9831 103.704 25.2079 103.621 25.4321C103.538 25.6569 103.394 25.8713 103.188 26.0758C103.003 26.26 102.735 26.4232 102.384 26.5661C102.033 26.6887 101.58 26.77 101.023 26.8113C99.9512 26.8519 98.9304 26.8827 97.9611 26.9031C97.013 26.9234 96.0854 26.9437 95.1783 26.9647H89.7968C89.2609 28.0063 88.6529 29.2216 87.9721 30.6107C87.3125 31.9794 86.6118 33.4196 85.8695 34.9312C85.1477 36.4428 84.4159 37.9748 83.6736 39.5277C82.9518 41.0596 82.2611 42.5201 81.6014 43.9091C80.9418 45.2779 80.3437 46.5135 79.8078 47.6167C79.2719 48.7403 78.8386 49.6292 78.5084 50.2827C78.2821 50.7527 78.0036 51.1814 77.6735 51.5695C77.344 51.9785 76.9834 52.3253 76.5911 52.6111C76.1994 52.8976 75.7978 53.1119 75.385 53.2548C74.9728 53.4181 74.5917 53.5 74.241 53.5C73.7461 53.5 73.3028 53.3774 72.9106 53.1323C72.5195 52.8871 72.3237 52.499 72.3237 51.968C72.3237 51.7026 72.3852 51.3859 72.5089 51.0176C72.6326 50.6708 72.8073 50.2624 73.0349 49.7924L77.6455 40.1128C77.1059 40.4387 76.5277 40.7744 75.9109 41.1206C74.6942 41.7951 73.3955 42.4178 72.014 42.9901C70.6537 43.5617 69.2307 44.0317 67.7466 44.3995C66.262 44.7875 64.7979 44.9816 63.3542 44.9816C62.1177 44.9816 61.0148 44.7469 60.0455 44.2769C59.0974 43.8069 58.283 43.1737 57.6022 42.3772C57.006 41.6571 56.5428 40.8317 56.1996 39.9114C55.5661 40.3007 54.8841 40.7023 54.1386 41.1206C52.922 41.7951 51.6232 42.4178 50.2424 42.9901C48.8815 43.5617 47.4584 44.0317 45.9737 44.3995C44.4897 44.7875 43.0256 44.9816 41.5826 44.9816C40.3454 44.9816 39.2425 44.7469 38.2738 44.2769C37.3251 43.8069 36.5107 43.1737 35.8305 42.3772C35.6658 42.1788 35.511 41.9725 35.3661 41.7587C34.3689 42.4431 33.381 43.0092 32.403 43.4496C30.3825 44.3483 28.4645 44.798 26.6504 44.798C25.1663 44.798 23.7948 44.3791 22.5371 43.5414C21.28 42.7037 20.1355 41.5703 19.1047 40.1399C18.0732 38.7102 17.1357 37.0452 16.2902 35.1455C15.4453 33.2255 14.6924 31.2033 14.0321 29.0787C13.6616 29.9165 13.2799 30.907 12.8888 32.0508C12.4971 33.1744 12.0738 34.3386 11.6199 35.5441C11.1667 36.749 10.6923 37.944 10.1974 39.1291C9.70317 40.2933 9.15669 41.3454 8.5586 42.2854C7.96114 43.2045 7.3214 43.9498 6.64125 44.522C5.9611 45.0937 5.21878 45.3801 4.41491 45.3801C3.75465 45.3801 3.21874 45.2779 2.80654 45.0733C2.39435 44.8695 2.07417 44.6138 1.84787 44.3077C1.62094 44.0009 1.45619 43.664 1.35298 43.2962C1.2703 42.9285 1.22926 42.5817 1.22926 42.2546C1.22926 41.7846 1.29081 41.3048 1.41453 40.8144C1.53825 40.3241 1.71358 39.8646 1.9405 39.4353L11.0635 22.8887C11.8474 21.5003 12.6302 20.1618 13.4142 18.875C14.218 17.5678 14.9908 16.4135 15.7338 15.4125C16.4966 14.4115 17.2078 13.6151 17.8675 13.0225C18.5476 12.4096 19.1563 12.1035 19.6922 12.1035C19.8364 12.1035 20.0117 12.1336 20.2182 12.1952C20.4246 12.2359 20.6092 12.3277 20.7746 12.4706C20.94 12.5938 21.0836 12.7878 21.2073 13.0533C21.3316 13.2985 21.3932 13.6151 21.3932 14.0031C21.3932 14.3912 21.28 14.9321 21.0525 15.6269C20.8262 16.3217 20.5271 17.1182 20.156 18.0169C19.7848 18.9156 19.3521 19.9067 18.8572 20.989C18.3623 22.0516 17.8469 23.1443 17.311 24.2679C17.4348 24.2882 17.5579 24.2987 17.6816 24.2987H18.1149C19.9092 24.2987 21.599 23.9205 23.1868 23.1647C24.7952 22.3885 26.1971 21.4079 27.3933 20.2234C28.5882 19.0382 29.5264 17.7206 30.2072 16.2706C30.9084 14.8199 31.2585 13.4106 31.2585 12.0419C31.2585 11.0612 31.0732 10.1317 30.702 9.2533C30.3514 8.37491 29.7844 7.60924 29.001 6.95568C28.2382 6.30151 27.2484 5.781 26.0318 5.39293C24.8362 5.00425 23.4038 4.81021 21.7333 4.81021C19.8576 4.81021 18.2386 4.98392 16.8783 5.33134C15.5373 5.67875 14.3728 6.1278 13.3831 6.67972C12.4144 7.23164 11.5894 7.86426 10.9093 8.57942C10.249 9.29457 9.67208 10.0294 9.1772 10.7859C8.70284 11.5417 8.27013 12.2765 7.87845 12.9917C7.48677 13.7069 7.07396 14.3401 6.64125 14.892C6.22905 15.4433 5.76526 15.8924 5.24924 16.2398C4.73384 16.5872 4.09472 16.7609 3.33189 16.7609C2.30109 16.7609 1.52768 16.5053 1.01229 15.9946C0.497512 15.4636 0.239502 14.7282 0.239502 13.7888C0.239502 12.9104 0.476995 11.9599 0.950738 10.9386C1.44562 9.91733 2.13634 8.89603 3.02228 7.87473C3.92997 6.85343 5.03289 5.87279 6.33226 4.93341C7.63039 3.97309 9.08395 3.13536 10.6923 2.4202C12.3212 1.68533 14.0943 1.10261 16.0123 0.673886C17.9296 0.224834 19.9601 0 22.1044 0C24.2077 0 26.2176 0.265489 28.135 0.796466C30.0729 1.32744 31.7844 2.12391 33.2691 3.18648C34.7531 4.22873 35.9288 5.5457 36.7948 7.13925C37.6807 8.7328 38.124 10.5918 38.124 12.7157C38.124 14.1461 37.8567 15.5148 37.3201 16.8219C36.8047 18.1093 36.1035 19.3246 35.2175 20.4685C34.331 21.5921 33.2896 22.6337 32.0934 23.5934C30.919 24.5334 29.6607 25.3711 28.3209 26.1066C26.9811 26.8415 25.599 27.4648 24.1766 27.9755C22.7746 28.4862 21.4137 28.8539 20.0938 29.0787C20.2797 30.0384 20.5787 31.1213 20.9909 32.3268C21.4243 33.5113 21.9397 34.6454 22.5371 35.7276C23.1557 36.7902 23.8365 37.6988 24.5782 38.4546C25.3211 39.211 26.1039 39.6194 26.9295 39.6804C27.0936 39.7007 27.2484 39.7112 27.3933 39.7112H27.826C29.3312 39.7112 30.671 39.4661 31.8466 38.9757C32.6231 38.6517 33.3051 38.3037 33.9107 37.9353C33.8317 37.4148 33.7895 36.8839 33.7895 36.3406C33.7895 35.4622 33.9642 34.5018 34.3148 33.4608C34.6654 32.3983 35.1703 31.3357 35.8305 30.2737C36.4895 29.2118 37.294 28.18 38.2428 27.179C39.2114 26.1577 40.2944 25.259 41.4893 24.4823C42.6855 23.7061 43.9948 23.0834 45.4173 22.6134C46.8609 22.1434 48.3965 21.9087 50.0254 21.9087C51.737 21.9087 53.0152 22.3171 53.8601 23.1339C54.7056 23.9513 55.1284 25.0847 55.1284 26.5353C55.1284 27.3934 54.9015 28.2921 54.4476 29.2321C53.9944 30.1715 53.2111 31.1318 52.0976 32.1124C50.9841 33.0721 49.4895 34.0633 47.6132 35.0846C45.758 36.0855 43.4278 37.0964 40.6239 38.1183C40.7271 38.7102 41.0467 39.1802 41.5826 39.5277C42.1185 39.8541 42.8297 40.018 43.7163 40.018C44.665 40.018 45.6753 39.8849 46.7471 39.6194C47.8395 39.3336 48.9119 38.9757 49.9632 38.547C51.0357 38.1183 52.0771 37.6581 53.0873 37.1678C54.0068 36.7034 54.8362 36.2648 55.5847 35.8508C55.637 35.108 55.7999 34.3127 56.0871 33.4608C56.4377 32.3983 56.9426 31.3357 57.6022 30.2737C58.2624 29.2118 59.0663 28.18 60.015 27.179C60.9837 26.1577 62.0661 25.259 63.2622 24.4823C64.4578 23.7061 65.7671 23.0834 67.189 22.6134C68.6332 22.1434 70.1688 21.9087 71.7971 21.9087C73.5093 21.9087 74.7875 22.3171 75.6318 23.1339C76.4779 23.9513 76.9007 25.0847 76.9007 26.5353C76.9007 27.3934 76.6738 28.2921 76.2199 29.2321C75.7667 30.1715 74.9833 31.1318 73.8699 32.1124C72.7564 33.0721 71.2618 34.0633 69.3855 35.0846C67.5296 36.0855 65.2001 37.0964 62.3962 38.1183C62.4994 38.7102 62.819 39.1802 63.3542 39.5277C63.8908 39.8541 64.602 40.018 65.4886 40.018C66.4373 40.018 67.4476 39.8849 68.5194 39.6194C69.6124 39.3336 70.6836 38.9757 71.7361 38.547C72.8073 38.1183 73.8493 37.6581 74.8596 37.1678C75.8699 36.6572 76.777 36.1773 77.5808 35.7276C78.4052 35.2786 79.086 34.8905 79.6219 34.5634C80.0235 34.3281 80.3251 34.1581 80.5333 34.0503L83.9521 26.8723H82.3127C81.1787 26.8723 80.4059 26.6992 79.9931 26.3518C79.5809 26.0044 79.3745 25.5953 79.3745 25.126C79.3745 24.6356 79.6325 24.1656 80.1479 23.7166C80.6633 23.2466 81.4162 23.0119 82.4053 23.0119H86.0547C87.5189 20.0903 88.9824 17.68 90.4465 15.7803C91.9311 13.8806 93.3847 12.3788 94.8072 11.2756C96.2296 10.173 97.6111 9.40668 98.9515 8.97734C100.312 8.54862 101.611 8.33425 102.848 8.33425C103.425 8.33425 103.972 8.44698 104.487 8.6712C105.023 8.89603 105.487 9.23297 105.879 9.68264ZM92.4548 36.3164C92.9878 36.0303 93.5607 35.8875 94.1729 35.8875C95.1406 35.8875 95.9207 36.2507 96.5133 36.9776C97.1255 37.7039 97.4315 38.6068 97.4315 39.6856C97.4315 40.3681 97.313 41.0174 97.076 41.6342C96.8587 42.2502 96.5526 42.8006 96.1583 43.2846C95.7831 43.7473 95.3389 44.1105 94.825 44.3747C94.3104 44.6615 93.7679 44.8042 93.195 44.8042C92.7216 44.8042 92.2767 44.694 91.8623 44.4736C91.4478 44.2758 91.0821 44.0009 90.7665 43.6484C90.4699 43.2959 90.2329 42.8889 90.0555 42.4262C89.8774 41.9422 89.7887 41.4356 89.7887 40.9072C89.7887 40.2466 89.8971 39.6193 90.1144 39.0244C90.3514 38.4083 90.6671 37.8692 91.0619 37.4065C91.4573 36.9445 91.9218 36.5806 92.4548 36.3164Z" fill="black"/>
</g>
</svg>
