<svg width="114" height="32" viewBox="0 0 114 32" fill="none" xmlns="http://www.w3.org/2000/svg">
<g clip-path="url(#clip0_27811_1075)">
<g clip-path="url(#clip1_27811_1075)">
<g clip-path="url(#clip2_27811_1075)">
<g clip-path="url(#clip3_27811_1075)">
<path d="M23.7372 22.5375C24.1299 22.3331 24.343 22.2146 24.5586 22.1101C29.3213 19.7613 31.5506 15.2333 30.4467 10.1432C29.5463 6.00087 25.4038 2.33251 21.0721 2.23029C14.3914 2.07231 7.70589 2.15362 1.02039 2.12109C0.989254 2.12109 0.965309 2.12342 0.936575 2.12574H0.0913086V7.86641L24.9297 31.8513H33.2914L33.2507 31.8118L33.3153 31.8281L23.7372 22.5375ZM21.9868 17.1244C21.0506 17.4822 19.9611 17.4845 18.9338 17.5821C18.7925 17.596 18.6201 17.5217 18.4669 17.4218L8.49608 7.75025H20.1574C20.1574 7.75025 21.2062 7.76651 22.4059 8.28226C23.6917 8.956 24.6376 10.1292 24.9441 11.5487C25.4421 13.8626 24.2545 16.2555 21.9868 17.1244Z" fill="black" fill-opacity="0.4"/>
<path d="M0.000488281 18.272L13.963 31.8187H21.8074L0.0699295 10.7285L0.000488281 18.272Z" fill="black" fill-opacity="0.4"/>
<path d="M54.8894 22.2979H37.4956C38.1684 25.1509 40.3115 27.3928 44.4708 27.3928C47.0329 27.3928 50.0165 26.4542 51.992 25.109L54.1758 28.9005C52.0327 30.4501 48.4194 31.9579 44.2601 31.9579C35.6901 31.9579 31.9067 26.2521 31.9067 20.3813C31.9067 13.7787 36.6551 8.80469 43.7548 8.80469C50.1841 8.80469 55.057 12.9214 55.057 19.9329C55.057 20.8297 54.9732 21.5638 54.8894 22.2979ZM37.4956 18.2625H49.6789C49.2168 15.1657 46.8629 13.249 43.7548 13.249C40.5629 13.249 38.2091 15.2052 37.4956 18.2625Z" fill="black" fill-opacity="0.4"/>
<path d="M57.1987 31.4703V0.490234H62.6606V31.4703H57.1987Z" fill="black" fill-opacity="0.4"/>
<path d="M65.5171 3.34311C65.5171 1.42646 67.0711 0 69.0466 0C70.979 0 72.4923 1.42646 72.4923 3.34311C72.4923 5.29926 70.979 6.68622 69.0466 6.68622C67.0711 6.68622 65.5171 5.29926 65.5171 3.34311ZM66.2307 31.4703V9.33469H71.7357V31.4703H66.2307Z" fill="black" fill-opacity="0.4"/>
<path d="M91.2293 30.1647C89.4645 31.3472 86.9431 32 84.6323 32C79.465 32 76.8166 28.9845 76.8166 23.3577V13.8185H73.0357V9.33473H76.9004V1.50781H82.3192V9.33473H89.965V13.8185H82.3192V23.1532C82.3192 25.7622 83.2866 27.1492 85.638 27.1492C87.1083 27.1492 88.3678 26.659 89.5028 26.0085L91.2293 30.1647Z" fill="black" fill-opacity="0.4"/>
<path d="M113.452 22.2979H96.059C96.7319 25.1509 98.875 27.3928 103.034 27.3928C105.596 27.3928 108.58 26.4542 110.555 25.109L112.739 28.9005C110.596 30.4501 106.982 31.9579 102.823 31.9579C94.2536 31.9579 90.4702 26.2521 90.4702 20.3813C90.4702 13.7787 95.2186 8.80469 102.318 8.80469C108.747 8.80469 113.62 12.9214 113.62 19.9329C113.62 20.8297 113.536 21.5638 113.452 22.2979ZM96.059 18.2625H108.242C107.78 15.1657 105.426 13.249 102.318 13.249C99.1264 13.249 96.7726 15.2052 96.059 18.2625Z" fill="black" fill-opacity="0.4"/>
</g>
</g>
</g>
</g>
<defs>
<clipPath id="clip0_27811_1075">
<rect width="114" height="32" fill="white" transform="translate(0.000488281)"/>
</clipPath>
<clipPath id="clip1_27811_1075">
<rect width="114" height="32" fill="white" transform="translate(0.000488281)"/>
</clipPath>
<clipPath id="clip2_27811_1075">
<rect width="114" height="32" fill="white" transform="translate(0.000488281)"/>
</clipPath>
<clipPath id="clip3_27811_1075">
<rect width="114" height="32" fill="white" transform="translate(0.000488281)"/>
</clipPath>
</defs>
</svg>
