<svg width="202" height="56" viewBox="0 0 202 56" fill="none" xmlns="http://www.w3.org/2000/svg">
<g opacity="0.4">
<path d="M55.6793 17.851H52.1125V26.2253C50.8409 25.3258 49.3521 24.8606 47.6152 24.8606C45.5682 24.8606 43.8313 25.605 42.3736 27.0937C40.9468 28.5825 40.2335 30.3814 40.2335 32.5215C40.2335 34.6616 40.9158 36.4605 42.3736 37.9803C43.8003 39.4691 45.5682 40.2134 47.6152 40.2134C49.3521 40.2134 50.8409 39.7482 52.1125 38.8177V39.8723H55.6793V17.851ZM48.1425 37.1119C46.9019 37.1119 45.8783 36.6466 45.0409 35.7472C44.2035 34.8477 43.8003 33.7622 43.8003 32.5215C43.8003 31.2809 44.2035 30.2263 45.0409 29.3269C45.8783 28.4274 46.9019 27.9622 48.1425 27.9622C49.8484 27.9622 51.182 28.6445 52.1125 30.0092V35.0338C51.182 36.4295 49.8484 37.1119 48.1425 37.1119Z" fill="black"/>
<path d="M61.9547 25.2018H58.3569V39.8723H61.9547V30.7536C63.2264 29.2028 64.9943 28.3964 67.2894 28.3034V24.9226C65.1183 24.9226 63.3504 25.636 61.9547 27.0627V25.2018Z" fill="black"/>
<path d="M82.8969 25.2018H79.3301V26.2253C78.0585 25.3258 76.5697 24.8606 74.8328 24.8606C72.7858 24.8606 71.0489 25.605 69.5912 27.1248C68.1644 28.6135 67.4511 30.4124 67.4511 32.5525C67.4511 34.6926 68.1644 36.4915 69.5912 37.9803C71.0489 39.4691 72.7858 40.2134 74.8328 40.2134C76.5697 40.2134 78.0585 39.7482 79.3301 38.8487V39.8723H82.8969V25.2018ZM75.3601 37.1119C74.1195 37.1119 73.0959 36.6776 72.2585 35.7782C71.4211 34.8787 71.0179 33.7932 71.0179 32.5525C71.0179 31.3119 71.4211 30.2263 72.2585 29.3269C73.0959 28.4274 74.1195 27.9622 75.3601 27.9622C77.066 27.9622 78.3996 28.6445 79.3301 30.0403V35.0338C78.3996 36.4295 77.066 37.1119 75.3601 37.1119Z" fill="black"/>
<path d="M100.4 25.2018H96.8332V26.0082C95.5616 25.1087 94.0728 24.6435 92.3049 24.6435C90.2269 24.6435 88.49 25.3569 87.0632 26.7836C85.6675 28.1793 84.9542 29.9782 84.9542 32.1493C84.9542 34.1033 85.6675 35.7782 87.0942 37.2359C88.552 38.6937 90.2889 39.407 92.3049 39.407C94.0728 39.407 95.5616 38.9418 96.8332 38.0423V39.8723C96.8332 42.4466 95.2824 43.9353 92.9562 43.9353C90.7541 43.9353 89.2654 42.8188 89.0172 41.1129H85.3884C85.5435 42.8808 86.3499 44.3385 87.7456 45.4861C89.1413 46.6337 90.8782 47.192 92.9562 47.192C95.1584 47.192 96.9573 46.5097 98.322 45.207C99.7177 43.8733 100.4 42.1364 100.4 39.8723V25.2018ZM92.8322 36.3054C91.6226 36.3054 90.599 35.8712 89.7616 35.0338C88.9242 34.1654 88.521 33.2039 88.521 32.1493C88.521 30.8777 88.9242 29.8231 89.7306 28.9857C90.537 28.1483 91.5605 27.7141 92.8322 27.7141C94.5381 27.7141 95.8717 28.4274 96.8332 29.8231V34.2274C95.9027 35.6231 94.5691 36.3054 92.8322 36.3054Z" fill="black"/>
<path d="M117.812 32.5525C117.812 30.3504 117.067 28.5205 115.578 27.0627C114.121 25.605 112.26 24.8606 110.027 24.8606C107.793 24.8606 105.932 25.605 104.444 27.0627C102.955 28.5205 102.211 30.3504 102.211 32.5525C102.211 34.7857 102.955 36.6466 104.444 38.1354C105.932 39.5931 107.793 40.3375 110.027 40.3375C112.229 40.3375 114.09 39.5931 115.578 38.1354C117.067 36.6466 117.812 34.7857 117.812 32.5525ZM114.245 32.5525C114.245 33.8242 113.842 34.9097 113.066 35.7782C112.291 36.6466 111.267 37.0808 110.027 37.0808C108.786 37.0808 107.762 36.6466 106.956 35.7782C106.181 34.9097 105.777 33.8242 105.777 32.5525C105.777 30.0403 107.514 28.1173 110.027 28.1173C112.508 28.1173 114.245 30.0403 114.245 32.5525Z" fill="black"/>
<path d="M127.582 24.7365C125.907 24.7365 124.387 25.2948 123.053 26.4114V25.2018H119.456V39.8723H123.053V30.1023C124.201 28.7066 125.473 27.9932 126.837 27.9932C129.071 27.9932 130.435 29.4199 130.435 31.9942V39.8723H134.002V31.7771C134.002 29.637 133.413 27.9312 132.234 26.6595C131.056 25.3879 129.505 24.7365 127.582 24.7365Z" fill="black"/>
<path d="M139.949 17.851H136.351V39.8723H139.949V17.851Z" fill="black"/>
<path d="M157.398 25.2018H153.831V26.2253C152.56 25.3258 151.071 24.8606 149.334 24.8606C147.287 24.8606 145.55 25.605 144.092 27.1248C142.666 28.6135 141.952 30.4124 141.952 32.5525C141.952 34.6926 142.666 36.4915 144.092 37.9803C145.55 39.4691 147.287 40.2134 149.334 40.2134C151.071 40.2134 152.56 39.7482 153.831 38.8487V39.8723H157.398V25.2018ZM149.861 37.1119C148.621 37.1119 147.597 36.6776 146.76 35.7782C145.922 34.8787 145.519 33.7932 145.519 32.5525C145.519 31.3119 145.922 30.2263 146.76 29.3269C147.597 28.4274 148.621 27.9622 149.861 27.9622C151.567 27.9622 152.901 28.6445 153.831 30.0403V35.0338C152.901 36.4295 151.567 37.1119 149.861 37.1119Z" fill="black"/>
<path d="M168.14 24.8606C166.403 24.8606 164.914 25.3258 163.674 26.2253V17.851H160.076V39.8723H163.674V38.8487C164.914 39.7482 166.403 40.2134 168.14 40.2134C170.187 40.2134 171.924 39.4691 173.351 37.9803C174.808 36.4605 175.522 34.6616 175.522 32.5215C175.522 30.3814 174.808 28.5825 173.351 27.0937C171.924 25.605 170.187 24.8606 168.14 24.8606ZM167.613 37.1119C165.907 37.1119 164.604 36.4295 163.674 35.0648V29.9782C164.635 28.6445 165.938 27.9622 167.613 27.9622C168.853 27.9622 169.877 28.4274 170.714 29.3269C171.552 30.2263 171.955 31.2809 171.955 32.5215C171.955 33.7932 171.552 34.8787 170.714 35.7782C169.877 36.6776 168.853 37.1119 167.613 37.1119Z" fill="black"/>
<path d="M189.281 27.1248V25.2018H176.317V28.1793H184.133L176.1 38.1974V39.8723H189.281V36.8947H181.403L189.281 27.1248Z" fill="black"/>
<path d="M193.322 18.8574C193.137 18.5388 192.87 18.2762 192.548 18.0975C192.205 17.9176 191.824 17.8236 191.437 17.8236C191.05 17.8236 190.668 17.9176 190.325 18.0975C190.003 18.2752 189.735 18.538 189.552 18.8574C189.364 19.2008 189.265 19.5859 189.265 19.9774C189.265 20.3689 189.364 20.7541 189.552 21.0974C189.735 21.4168 190.003 21.6797 190.325 21.8573C190.669 22.0356 191.05 22.1286 191.437 22.1286C191.824 22.1286 192.205 22.0356 192.548 21.8573C192.87 21.6787 193.137 21.4161 193.322 21.0974C193.51 20.7541 193.609 20.3689 193.609 19.9774C193.609 19.5859 193.51 19.2008 193.322 18.8574ZM192.693 21.2284C192.527 21.388 192.329 21.5121 192.113 21.593C191.897 21.6738 191.667 21.7098 191.437 21.6988C191.206 21.7091 190.975 21.6727 190.758 21.5919C190.542 21.5111 190.343 21.3874 190.176 21.2284C189.869 20.8819 189.7 20.4355 189.7 19.9731C189.7 19.5107 189.869 19.0643 190.176 18.7178C190.343 18.5588 190.542 18.4352 190.758 18.3544C190.975 18.2736 191.206 18.2372 191.437 18.2474C191.777 18.2576 192.108 18.3654 192.389 18.5581C192.67 18.7508 192.89 19.0203 193.023 19.3344C193.155 19.6485 193.194 19.994 193.136 20.3298C193.077 20.6656 192.924 20.9775 192.693 21.2284Z" fill="black"/>
<path d="M192.248 19.7804C192.315 19.6778 192.349 19.5579 192.347 19.4358C192.347 19.3523 192.33 19.2695 192.296 19.1931C192.262 19.1168 192.213 19.0485 192.15 18.993C191.989 18.8583 191.781 18.7915 191.571 18.8069H190.692V21.1003H191.106V20.2526H191.623C191.652 20.2482 191.683 20.2508 191.711 20.2602C191.739 20.2696 191.765 20.2854 191.786 20.3065C191.807 20.3276 191.823 20.3534 191.832 20.3817C191.842 20.41 191.844 20.4402 191.84 20.4697V21.1003H192.264V20.48C192.267 20.3861 192.24 20.2938 192.186 20.2164C192.156 20.1783 192.118 20.1478 192.074 20.1271C192.03 20.1065 191.982 20.0963 191.933 20.0975V20.0148C192.061 19.9723 192.171 19.8902 192.248 19.7804ZM191.84 19.7701C191.809 19.8075 191.769 19.8369 191.724 19.8558C191.679 19.8747 191.63 19.8825 191.582 19.8787H191.106V19.1894H191.582C191.629 19.1853 191.677 19.192 191.722 19.209C191.767 19.226 191.807 19.2529 191.84 19.2876C191.896 19.3559 191.926 19.4422 191.923 19.5306C191.924 19.6168 191.897 19.701 191.845 19.7701H191.84Z" fill="black"/>
<path d="M31.0059 10.8236C30.974 10.7826 30.9333 10.7494 30.8867 10.7265C30.8402 10.7035 30.789 10.6913 30.7371 10.6909H28.5729C27.6493 10.6911 26.7554 10.3652 26.0486 9.77075L22.8229 7.05859C22.7768 7.02061 22.7189 6.9999 22.6592 7H22.1251C22.078 6.99992 22.0319 7.013 21.992 7.03779C21.952 7.06257 21.9198 7.09806 21.899 7.14022C21.8782 7.18238 21.8696 7.22952 21.8743 7.27631C21.8789 7.3231 21.8965 7.36765 21.9252 7.40493L27.2306 14.3663C27.2733 14.4225 27.2994 14.4894 27.306 14.5597C27.3127 14.6299 27.2996 14.7006 27.2683 14.7638C27.2369 14.827 27.1886 14.8802 27.1287 14.9174C27.0687 14.9547 26.9996 14.9744 26.9291 14.9745H20.0367C19.9752 14.9772 19.9157 14.9964 19.8641 15.0299C19.8126 15.0634 19.771 15.11 19.7435 15.1651C19.7161 15.2201 19.7039 15.2814 19.7082 15.3428C19.7125 15.4041 19.7331 15.4632 19.7679 15.5138L28.2989 26.7278C28.3484 26.7939 28.3752 26.8743 28.3752 26.957C28.3752 27.0396 28.3484 27.12 28.2989 27.1861L27.5029 28.2338C27.4675 28.2802 27.4219 28.3178 27.3696 28.3437C27.3173 28.3697 27.2597 28.3831 27.2013 28.3831C27.143 28.3831 27.0854 28.3697 27.0331 28.3437C26.9808 28.3178 26.9352 28.2802 26.8998 28.2338L16.158 14.1043C16.1268 14.063 16.0865 14.0294 16.0401 14.0064C15.9938 13.9834 15.9427 13.9715 15.8909 13.9717H10.2632C10.2015 13.9742 10.1417 13.9933 10.0899 14.0269C10.038 14.0605 9.99622 14.1074 9.96875 14.1627C9.94128 14.218 9.92917 14.2796 9.93369 14.3412C9.9382 14.4028 9.95918 14.462 9.99443 14.5127L23.7913 32.6604C23.8407 32.7263 23.8673 32.8064 23.8673 32.8887C23.8673 32.9711 23.8407 33.0512 23.7913 33.117L22.9435 34.2284C22.908 34.2746 22.8623 34.3119 22.81 34.3376C22.7577 34.3633 22.7002 34.3767 22.642 34.3767C22.5837 34.3767 22.5263 34.3633 22.474 34.3376C22.4217 34.3119 22.376 34.2746 22.3405 34.2284L13.4648 22.551C13.433 22.5097 13.3923 22.4762 13.3458 22.4529C13.2992 22.4297 13.248 22.4172 13.196 22.4166H7.5683C7.50675 22.4194 7.44709 22.4387 7.39552 22.4724C7.34396 22.5061 7.30238 22.5531 7.2751 22.6083C7.24783 22.6636 7.23587 22.7251 7.24046 22.7865C7.24505 22.848 7.26603 22.9071 7.30122 22.9576L19.8161 39.4236C19.8515 39.47 19.8971 39.5077 19.9494 39.5336C20.0017 39.5595 20.0593 39.573 20.1177 39.573C20.176 39.573 20.2336 39.5595 20.2859 39.5336C20.3382 39.5077 20.3838 39.47 20.4192 39.4236L28.8848 28.2855C28.9202 28.2394 28.9657 28.202 29.0179 28.1763C29.07 28.1506 29.1273 28.1372 29.1855 28.1372C29.2436 28.1372 29.301 28.1506 29.3531 28.1763C29.4052 28.202 29.4508 28.2394 29.4862 28.2855L30.5097 29.6295C30.56 29.6953 30.5872 29.7758 30.5872 29.8587C30.5872 29.9415 30.56 30.022 30.5097 30.0878L23.5087 39.2806C23.4735 39.3313 23.4525 39.3905 23.448 39.4521C23.4435 39.5137 23.4556 39.5753 23.483 39.6306C23.5105 39.6859 23.5523 39.7328 23.6041 39.7664C23.6559 39.8 23.7158 39.8191 23.7775 39.8216H29.0278C29.075 39.8212 29.1213 39.8341 29.1615 39.8587C29.2017 39.8834 29.2342 39.9188 29.2552 39.9611C29.2762 40.0033 29.2849 40.0506 29.2804 40.0975C29.2758 40.1445 29.2582 40.1892 29.2294 40.2266L22.2629 49.3917C22.2203 49.4479 22.1941 49.5149 22.1875 49.5851C22.1808 49.6554 22.1939 49.7261 22.2252 49.7893C22.2566 49.8525 22.3049 49.9057 22.3649 49.9429C22.4248 49.9801 22.4939 49.9999 22.5645 50H28.087C28.1454 49.9998 28.203 49.9862 28.2552 49.9602C28.3075 49.9342 28.3531 49.8965 28.3885 49.8501L35.5497 40.4316C35.5919 40.3754 35.6176 40.3086 35.624 40.2386C35.6304 40.1687 35.6172 40.0983 35.5859 40.0354C35.5547 39.9725 35.5065 39.9195 35.4469 39.8824C35.3872 39.8452 35.3185 39.8254 35.2482 39.8251H30.0789C30.0317 39.8251 29.9855 39.8119 29.9454 39.787C29.9053 39.7621 29.8729 39.7266 29.852 39.6843C29.831 39.642 29.8223 39.5947 29.8267 39.5477C29.8312 39.5008 29.8487 39.456 29.8773 39.4184L36.9748 30.093C37.0251 30.0272 37.0523 29.9467 37.0523 29.8638C37.0523 29.781 37.0251 29.7005 36.9748 29.6347L27.0514 16.5856C27.0088 16.5294 26.9826 16.4624 26.976 16.3922C26.9693 16.322 26.9824 16.2513 27.0137 16.1881C27.0451 16.1249 27.0934 16.0716 27.1534 16.0344C27.2133 15.9972 27.2824 15.9774 27.353 15.9774H28.2559C28.3143 15.9772 28.372 15.9906 28.4244 16.0166C28.4767 16.0427 28.5223 16.0805 28.5574 16.1273L31.354 19.8061C31.3892 19.8527 31.4348 19.8905 31.4871 19.9165C31.5394 19.9426 31.5971 19.9561 31.6555 19.956H37.1781C37.2486 19.9559 37.3178 19.9362 37.3777 19.8989C37.4376 19.8617 37.486 19.8085 37.5173 19.7453C37.5486 19.6821 37.5617 19.6114 37.5551 19.5412C37.5484 19.4709 37.5223 19.4039 37.4796 19.3477L31.0059 10.8236Z" fill="black"/>
</g>
</svg>
